{"title":"Did God Create the Universe? Docu DVDrip English Klam","uid":7122625,"size":747907004,"categoryP":"video","categoryS":"movies","magnet":"?xt=urn:btih:ea0802155fb07d61a3f6de50c913256a0ac9c4be&amp;dn=Did+God+Create+the+Universe%3F+Docu+DVDrip+English+Klam&amp;tr=udp%3A%2F%2Ftracker.openbittorrent.com%3A80&amp;tr=udp%3A%2F%2Fopen.demonii.com%3A1337&amp;tr=udp%3A%2F%2Ftracker.coppersurfer.tk%3A6969&amp;tr=udp%3A%2F%2Fexodus.desync.com%3A6969","seeders":0,"leechers":1,"uploader":"Klambake","files":-1,"time":1332414710,"description":"Stephen Hawking vertelt u zijn visie op de vraag: Door wie of wat is het Universum ontstaan' Hawking, de autoriteit op het gebied van het universum en als geleerde een levende legende, beantwoordt met behulp van de moderne natuurkunde en cosmologie de vragen waar filosofen al duizenden jaren over struikelen. Reis mee op een adembenemende trip Â naar het onbekende en laat u leiden door Stephen Hawking!\n\nStephen Hawking unfolds his personal, compelling vision of the biggest question of all: Who or what created the universe in which we live? The groundbreaking series Into the Universe with Stephen Hawking combined cutting-edge CG with Hawking's witty, distinctive and incisive worldview. Now, we take the journey a step further, as physics and cosmology become tools to answer questions that philosophers have struggled with for thousands of years.\n\n------------------------ Dutch Friends ------------------------\n---------------------------------------------------------------\n- Bezoek ook eens mijn vrienden op: &lt;a href=&quot; http://www.Film-Test.nl&quot; rel=&quot;nofollow&quot; target=&quot;_NEW&quot;&gt; http://www.Film-Test.nl&lt;/a&gt; --\n----- voor mijn Nederlandse Sync. ondertitels ---- en meer ----\n------- http://www.Film-Test.nl ---- voor Films en meer -------\n---------------------------------------------------------------\n\nGeneral:\n\nComplete name                    : Did God Create the UniverseDid God Create the Universe.avi\nFormat                           : AVI\nFormat/Info                      : Audio Video Interleave\nFile size                        : 707 MiB\nDuration                         : 43mn 12s\nOverall bit rate                 : 2 288 Kbps\n\nVideo:\n\nFormat                           : MPEG-4 Visual\nFormat profile                   : Simple@L3\nFormat settings, BVOP            : No\nFormat settings, QPel            : No\nFormat settings, GMC             : No warppoints\nFormat settings, Matrix          : Default (H.263)\nCodec ID                         : XVID\nCodec ID/Hint                    : XviD\nDuration                         : 43mn 12s\nBit rate                         : 2 115 Kbps\nWidth                            : 652 pixels\nHeight                           : 352 pixels\nDisplay aspect ratio             : 1.852\nFrame rate                       : 25.000 fps\nColor space                      : YUV\nChroma subsampling               : 4:2:0\nBit depth                        : 8 bits\nScan type                        : Progressive\nCompression mode                 : Lossy\nBits/(Pixel*Frame)               : 0.369\nStream size                      : 654 MiB (92%)\nWriting library                  : XviD 1.1.2 (UTC 2006-11-01)\n\nAudio:\n\nFormat                           : MPEG Audio\nFormat version                   : Version 1\nFormat profile                   : Layer 3\nMode                             : Joint stereo\nMode extension                   : MS Stereo\nCodec ID                         : 55\nCodec ID/Hint                    : MP3\nDuration                         : 43mn 12s\nBit rate mode                    : Constant\nBit rate                         : 160 Kbps\nChannel(s)                       : 2 channels\nSampling rate                    : 48.0 KHz\nCompression mode                 : Lossy\nStream size                      : 49.4 MiB (7%)\nAlignment                        : Split accross interleaves\nInterleave, duration             : 24 ms (0.60 video frame)\nWriting library                  : LAME3.98\n","torrent":{"xt":"urn:btih:ea0802155fb07d61a3f6de50c913256a0ac9c4be","amp;dn":"Did+God+Create+the+Universe%3F+Docu+DVDrip+English+Klam","amp;tr":["udp%3A%2F%2Ftracker.openbittorrent.com%3A80","udp%3A%2F%2Fopen.demonii.com%3A1337","udp%3A%2F%2Ftracker.coppersurfer.tk%3A6969","udp%3A%2F%2Fexodus.desync.com%3A6969"],"infoHash":"ea0802155fb07d61a3f6de50c913256a0ac9c4be","infoHashBuffer":{"type":"Buffer","data":[234,8,2,21,95,176,125,97,163,246,222,80,201,19,37,106,10,201,196,190]},"announce":[],"urlList":[]}}